HIERARCHY
ROOT Hips
{
	OFFSET 0.00000 0.00000 0.00000
	CHANNELS 6 Xposition Yposition Zposition Zrotation Yrotation Xrotation 
	JOINT LHipJoint
	{
		OFFSET 0 0 0
		CHANNELS 3 Zrotation Yrotation Xrotation
		JOINT LeftHip
		{
			OFFSET 1.77779 -1.88989 0.48267
			CHANNELS 3 Zrotation Yrotation Xrotation
			JOINT LeftKnee
			{
				OFFSET 2.53442 -6.96327 0.00000
				CHANNELS 3 Zrotation Yrotation Xrotation
				JOINT LeftAnkle
				{
					OFFSET 2.71068 -7.44755 0.00000
					CHANNELS 3 Zrotation Yrotation Xrotation
					JOINT LeftToe
					{
						OFFSET 0.17992 -0.49431 2.22524
						CHANNELS 3 Zrotation Yrotation Xrotation
						End Site
						{
							OFFSET 0.00000 -0.00000 1.14687
						}
					}
				}
			}
		}
	}
	JOINT RHipJoint
	{
		OFFSET 0 0 0
		CHANNELS 3 Zrotation Yrotation Xrotation
		JOINT RightHip
		{
			OFFSET -1.58469 -1.88989 0.48267
			CHANNELS 3 Zrotation Yrotation Xrotation
			JOINT RightKnee
			{
				OFFSET -2.60386 -7.15404 0.00000
				CHANNELS 3 Zrotation Yrotation Xrotation
				JOINT RightAnkle
				{
					OFFSET -2.73334 -7.50979 0.00000
					CHANNELS 3 Zrotation Yrotation Xrotation
					JOINT RightToe
					{
						OFFSET -0.25618 -0.70384 2.21822
						CHANNELS 3 Zrotation Yrotation Xrotation
						End Site
						{
							OFFSET -0.00000 -0.00000 1.16381
						}
					}
				}
			}
		}
	}
	JOINT lowerback
	{
		OFFSET 0 0 0
		CHANNELS 3 Zrotation Yrotation Xrotation
		JOINT Chest
		{
			OFFSET 0.03410 2.01612 -0.22230
			CHANNELS 3 Zrotation Yrotation Xrotation
			JOINT Chest2
			{
				OFFSET 0.03465 2.03012 0.00937
				CHANNELS 3 Zrotation Yrotation Xrotation
				JOINT lowerneck
				{
					OFFSET 0 0 0
					CHANNELS 3 Zrotation Yrotation Xrotation
					JOINT Neck
					{
						OFFSET -0.00219 1.70459 0.20857
						CHANNELS 3 Zrotation Yrotation Xrotation
						JOINT Head
						{
							OFFSET 0.02518 1.72339 -0.22179
							CHANNELS 3 Zrotation Yrotation Xrotation
							End Site
							{
								OFFSET 0.00282 1.74122 -0.09823
							}
						}
					}
				}
				JOINT LeftCollar
				{
					OFFSET 0 0 0
					CHANNELS 3 Zrotation Yrotation Xrotation
					JOINT LeftShoulder
					{
						OFFSET 3.36358 1.00547 -0.37661
CHANNELS 3 Zrotation Xrotation Yrotation
						JOINT LeftElbow
						{
OFFSET 0 -5.065070 0.000000
CHANNELS 3 Zrotation Xrotation Yrotation
							JOINT LeftWrist
							{
OFFSET 0 -3.601960 0.000000
CHANNELS 3 Zrotation Xrotation Yrotation
								JOINT lhand
								{
									OFFSET 0 0 0
CHANNELS 3 Zrotation Xrotation Yrotation
									JOINT LFingers
									{
OFFSET 0 -0.450350 0.000000
CHANNELS 3 Zrotation Xrotation Yrotation
										End Site
										{
OFFSET 0 -0.363080 0.000000
										}
									}
								}
								JOINT LThumb
								{
OFFSET 0 0.000000 0.000000
CHANNELS 3 Zrotation Xrotation Yrotation
									End Site
									{
OFFSET 0 -0.368620 0.368620
									}
								}
							}
						}
					}
				}
				JOINT RightCollar
				{
					OFFSET 0 0 0
					CHANNELS 3 Zrotation Yrotation Xrotation
					JOINT RightShoulder
					{
						OFFSET -3.50159 0.80383 -0.71526
CHANNELS 3 Zrotation Xrotation Yrotation
						JOINT RightElbow
						{
OFFSET 0 -5.363940 0.000000
CHANNELS 3 Zrotation Xrotation Yrotation
							JOINT RightWrist
							{
OFFSET 0 -3.580350 0.000000
CHANNELS 3 Zrotation Xrotation Yrotation
								JOINT rhand
								{
									OFFSET 0 0 0
CHANNELS 3 Zrotation Xrotation Yrotation
									JOINT RFingers
									{
OFFSET 0 -0.663750 0.000000
CHANNELS 3 Zrotation Xrotation Yrotation
										End Site
										{
OFFSET 0 -0.535130 0.000000
										}
									}
								}
								JOINT RThumb
								{
OFFSET 0 0.000000 0.000000
CHANNELS 3 Zrotation Xrotation Yrotation
									End Site
									{
OFFSET 0 -0.543300 0.543300
									}
								}
							}
						}
					}
				}
			}
		}
	}
}
MOTION
Frames: 5
Frame Time: 0.008333333333333333
-0.430000 18.192500 -35.888800 1.647400 -6.283900 7.925000 0.000000 0.000000 0.000000 -30.480900 1.282500 16.372300 3.169200 10.964100 32.158800 2.298700 -12.394400 35.218700 0.491400 -4.494500 -12.472100 0.000000 0.000000 0.000000 18.125600 16.698200 -38.168900 -1.947800 -8.756400 25.036200 -0.001000 -1.477300 -2.221500 -1.185300 6.909300 -19.446800 -3.289400 -0.907500 13.740500 1.359200 -1.637400 -1.152600 3.668200 -0.593900 -8.841100 -1.871100 -1.519300 -18.288600 0.834400 -1.716400 13.183200 0.382700 -0.842000 7.053500 0.000000 0.000000 0.000000 5.922300 9.904800 -44.435000 141.823300 -46.951800 102.905400 24.881700 -37.643600 0.498500 0.000000 0.000000 0.000000 -7.125000 0.000000 0.000000 -1.320700 29.429000 -0.501500 0.000000 0.000000 0.000000 -5.470700 36.981700 36.192400 -118.615200 -56.667800 -84.504300 -27.897200 -31.376400 -37.641600 0.000000 0.000000 0.000000 7.125000 0.000000 -0.000000 3.351400 -11.068400 3.938500
-0.428919 18.186181 -35.739234 1.703962 -6.106233 7.865168 0.000000 0.000000 0.000000 -30.491071 1.076815 16.235870 3.376437 11.264784 33.197256 2.242498 -12.543994 35.018863 0.505644 -4.557076 -12.649545 0.000000 0.000000 0.000000 18.193081 16.419935 -38.140633 -1.892624 -8.635932 24.664709 -0.000834 -1.602091 -2.377662 -1.253086 7.089905 -19.984873 -3.370710 -1.070729 13.733045 1.485515 -1.857911 -1.223628 3.898134 -0.690313 -8.886771 -2.164330 -1.455782 -17.726195 0.859868 -1.576755 12.904132 0.456638 -0.787794 6.869265 0.000000 0.000000 0.000000 5.593820 10.269501 -44.154823 141.601459 -47.090447 102.742615 24.944830 -37.670287 0.451693 0.000000 0.000000 0.000000 -7.125000 0.000000 0.000000 -1.271648 29.480490 -0.481464 0.000000 0.000000 0.000000 -5.851308 36.977460 36.402131 -118.465079 -56.704935 -84.378761 -27.912636 -31.382552 -37.613665 0.000000 0.000000 0.000000 7.125000 0.000000 0.000000 3.337100 -11.044401 3.920542
-0.427838 18.179863 -35.589667 1.760524 -5.928566 7.805336 0.000000 0.000000 0.000000 -30.501241 0.871130 16.099439 3.583673 11.565469 34.235712 2.186297 -12.693588 34.819025 0.519889 -4.619651 -12.826991 0.000000 0.000000 0.000000 18.260562 16.141670 -38.112366 -1.837447 -8.515464 24.293218 -0.000667 -1.726882 -2.533824 -1.320871 7.270509 -20.522946 -3.452019 -1.233957 13.725590 1.611830 -2.078422 -1.294656 4.128067 -0.786726 -8.932442 -2.457559 -1.392264 -17.163791 0.885336 -1.437110 12.625063 0.530576 -0.733587 6.685030 0.000000 0.000000 0.000000 5.265339 10.634202 -43.874646 141.379617 -47.229095 102.579829 25.007960 -37.696975 0.404886 0.000000 0.000000 0.000000 -7.125000 0.000000 0.000000 -1.222596 29.531981 -0.461427 0.000000 0.000000 0.000000 -6.231917 36.973220 36.611862 -118.314959 -56.742070 -84.253222 -27.928072 -31.388705 -37.585731 0.000000 0.000000 0.000000 7.125000 0.000000 0.000000 3.322800 -11.020401 3.902584
-0.426758 18.173544 -35.440101 1.817086 -5.750899 7.745504 0.000000 0.000000 0.000000 -30.511412 0.665446 15.963009 3.790910 11.866153 35.274168 2.130095 -12.843182 34.619188 0.534133 -4.682227 -13.004436 0.000000 0.000000 0.000000 18.328042 15.863406 -38.084099 -1.782271 -8.394997 23.921728 -0.000501 -1.851673 -2.689986 -1.388657 7.451114 -21.061018 -3.533329 -1.397186 13.718136 1.738146 -2.298934 -1.365684 4.358001 -0.883139 -8.978112 -2.750789 -1.328746 -16.601386 0.910804 -1.297465 12.345995 0.604514 -0.679381 6.500795 0.000000 0.000000 0.000000 4.936859 10.998904 -43.594469 141.157776 -47.367742 102.417044 25.071090 -37.723662 0.358079 0.000000 0.000000 0.000000 -7.125000 0.000000 0.000000 -1.173545 29.583471 -0.441391 0.000000 0.000000 0.000000 -6.612525 36.968980 36.821593 -118.164838 -56.779206 -84.127682 -27.943508 -31.394857 -37.557796 0.000000 0.000000 0.000000 7.125000 0.000000 0.000000 3.308501 -10.996402 3.884626
-0.425373 18.167237 -35.290166 1.842407 -5.545940 7.688320 0.000000 0.000000 0.000000 -30.473576 0.447792 15.797757 4.014880 12.171493 36.354012 2.129431 -12.889763 34.647556 0.504842 -4.515121 -12.536407 0.000000 0.000000 0.000000 18.424800 15.586172 -38.068821 -1.741723 -8.305792 23.647042 0.001152 -2.028410 -2.820267 -1.439731 7.585448 -21.462027 -3.472984 -1.519136 13.686005 1.768632 -2.447630 -1.340308 4.384774 -0.958652 -8.920575 -2.855866 -1.329393 -16.435232 0.926452 -1.278281 12.201169 0.629794 -0.674104 6.426658 0.000000 0.000000 0.000000 4.836833 11.108651 -43.484356 140.868384 -47.544673 102.203463 25.198937 -37.794103 0.365811 0.000000 0.000000 0.000000 -7.125000 0.000000 0.000000 -1.073383 29.574346 -0.403287 0.000000 0.000000 0.000000 -6.629166 36.772550 36.741916 -117.956316 -56.829732 -83.953095 -27.714516 -31.259734 -37.524479 0.000000 0.000000 0.000000 7.125000 0.000000 0.000000 3.420761 -10.900447 4.011372
